<svg width='1186' height='248' viewBox="0 0 1186 248" fill="currentColor"
    xmlns="http://www.w3.org/2000/svg">
    <g clipPath="url(#clip0_312_354)">
        <path d="M51.4571 91.2859L0 244H48.6204L248.4 87.9412L72.8159 172.239L100.078 91.2859H51.4571ZM106.085 73.4475L124.461 127.969L166.323 107.873L130.405 1.3053H81.7849L106.085 73.4475ZM145.298 189.778L163.549 244H212.19L183.781 159.73L145.298 189.778Z"/>
    </g>
    <path d="M497.062 192.09C497.062 188.498 496.74 185.229 496.095 182.282C495.45 179.335 494.069 176.618 491.951 174.131C489.925 171.645 486.932 169.158 482.971 166.672C479.103 164.185 474.038 161.606 467.775 158.935C460.315 155.804 453.086 152.489 446.086 148.989C439.087 145.397 432.778 141.253 427.161 136.556C421.543 131.859 417.076 126.333 413.76 119.978C410.537 113.532 408.925 105.98 408.925 97.3225C408.925 88.8495 410.445 81.1594 413.484 74.2522C416.615 67.3449 421.036 61.4507 426.746 56.5695C432.456 51.5963 439.133 47.7743 446.777 45.1035C454.513 42.4327 463.124 41.0973 472.61 41.0973C485.504 41.0973 496.648 43.7681 506.042 49.1097C515.528 54.4513 522.849 61.773 528.007 71.0748C533.256 80.3766 535.881 91.0599 535.881 103.125H495.543C495.543 97.4146 494.714 92.3953 493.056 88.0667C491.49 83.6461 488.958 80.1924 485.458 77.7058C481.958 75.2192 477.446 73.9759 471.92 73.9759C466.762 73.9759 462.48 75.035 459.072 77.1532C455.757 79.1794 453.27 81.9883 451.612 85.5801C450.047 89.0798 449.264 93.04 449.264 97.4606C449.264 100.776 450.047 103.769 451.612 106.44C453.27 109.019 455.526 111.367 458.381 113.485C461.236 115.512 464.598 117.492 468.466 119.426C472.426 121.36 476.755 123.248 481.452 125.09C490.569 128.681 498.628 132.642 505.627 136.97C512.627 141.207 518.475 145.996 523.172 151.337C527.869 156.587 531.414 162.527 533.809 169.158C536.203 175.789 537.401 183.341 537.401 191.814C537.401 200.195 535.927 207.839 532.98 214.746C530.125 221.561 525.935 227.456 520.409 232.429C514.883 237.31 508.206 241.086 500.378 243.757C492.642 246.428 483.984 247.763 474.406 247.763C465.105 247.763 456.309 246.474 448.021 243.895C439.732 241.224 432.41 237.218 426.055 231.876C419.793 226.442 414.866 219.581 411.274 211.293C407.682 202.912 405.886 193.011 405.886 181.591H446.363C446.363 187.67 446.961 192.873 448.159 197.202C449.356 201.438 451.198 204.846 453.684 207.424C456.171 209.911 459.21 211.799 462.802 213.088C466.486 214.286 470.676 214.884 475.373 214.884C480.715 214.884 484.951 213.871 488.083 211.845C491.306 209.819 493.609 207.102 494.99 203.694C496.371 200.287 497.062 196.419 497.062 192.09ZM616.707 95.5266V124.675H540.451V95.5266H616.707ZM557.995 58.6417H596.538V199.412C596.538 203.556 596.952 206.734 597.781 208.944C598.61 211.154 599.853 212.72 601.511 213.641C603.261 214.47 605.563 214.884 608.418 214.884C610.353 214.884 612.148 214.792 613.806 214.608C615.464 214.332 616.707 214.055 617.536 213.779V244.033C614.497 245.23 611.273 246.151 607.866 246.796C604.55 247.441 600.59 247.763 595.985 247.763C588.249 247.763 581.526 246.289 575.816 243.342C570.198 240.395 565.824 235.698 562.692 229.251C559.561 222.713 557.995 214.148 557.995 203.556V58.6417ZM699.191 209.082V95.5266H738.01V245H701.54L699.191 209.082ZM703.612 178.276L714.387 177.999C714.387 188.038 713.42 197.34 711.486 205.905C709.552 214.378 706.651 221.746 702.783 228.008C698.915 234.271 694.08 239.152 688.278 242.652C682.476 246.059 675.614 247.763 667.694 247.763C661.616 247.763 655.998 246.75 650.84 244.724C645.775 242.605 641.4 239.336 637.716 234.915C634.033 230.403 631.131 224.647 629.013 217.647C626.987 210.556 625.974 202.037 625.974 192.09V95.5266H664.793V192.505C664.793 196.557 665.161 200.057 665.898 203.004C666.635 205.859 667.648 208.207 668.937 210.049C670.227 211.891 671.746 213.227 673.496 214.055C675.246 214.792 677.226 215.161 679.436 215.161C685.515 215.161 690.304 213.595 693.803 210.464C697.395 207.24 699.928 202.866 701.401 197.34C702.875 191.722 703.612 185.367 703.612 178.276ZM827.263 211.983V32.8085H866.082V245L830.993 245.138L827.263 211.983ZM749.763 175.513V165.566C749.763 153.41 750.777 142.772 752.803 133.655C754.921 124.537 758.052 116.939 762.197 110.861C766.341 104.782 771.406 100.27 777.393 97.3225C783.471 94.2833 790.424 92.7637 798.253 92.7637C805.344 92.7637 811.561 94.5596 816.902 98.1513C822.336 101.651 826.941 106.578 830.717 112.933C834.493 119.288 837.532 126.794 839.834 135.451C842.137 144.108 843.748 153.594 844.669 163.909V178.276C843.564 188.038 841.86 197.156 839.558 205.629C837.348 214.101 834.308 221.469 830.44 227.732C826.664 233.994 822.106 238.922 816.764 242.513C811.422 246.013 805.206 247.763 798.114 247.763C790.286 247.763 783.333 246.197 777.254 243.066C771.268 239.935 766.203 235.33 762.058 229.251C758.006 223.081 754.921 215.529 752.803 206.596C750.777 197.57 749.763 187.209 749.763 175.513ZM788.444 165.566V175.513C788.444 182.512 788.767 188.545 789.411 193.61C790.148 198.583 791.299 202.681 792.865 205.905C794.523 209.036 796.687 211.385 799.358 212.95C802.028 214.424 805.344 215.161 809.304 215.161C814.462 215.161 818.652 213.871 821.875 211.293C825.099 208.622 827.493 204.984 829.059 200.379C830.717 195.682 831.638 190.294 831.822 184.216V158.106C831.638 153.041 831.039 148.482 830.026 144.43C829.013 140.378 827.585 136.924 825.743 134.069C823.902 131.214 821.599 129.004 818.836 127.438C816.165 125.873 813.034 125.09 809.442 125.09C805.574 125.09 802.259 125.873 799.496 127.438C796.825 129.004 794.707 131.444 793.141 134.76C791.575 137.983 790.378 142.174 789.549 147.331C788.813 152.396 788.444 158.475 788.444 165.566ZM924.529 95.5266V245H885.71V95.5266H924.529ZM883.914 56.8458C883.914 50.8595 885.802 45.9323 889.578 42.0643C893.446 38.1041 898.603 36.124 905.05 36.124C911.589 36.124 916.746 38.1041 920.522 42.0643C924.298 45.9323 926.186 50.8595 926.186 56.8458C926.186 62.74 924.252 67.6672 920.384 71.6274C916.608 75.4955 911.543 77.4295 905.188 77.4295C898.649 77.4295 893.446 75.4955 889.578 71.6274C885.802 67.6672 883.914 62.74 883.914 56.8458ZM939.459 175.375V165.29C939.459 153.594 940.841 143.233 943.604 134.207C946.459 125.182 950.511 117.63 955.76 111.551C961.01 105.381 967.319 100.73 974.686 97.5988C982.146 94.3754 990.481 92.7637 999.691 92.7637C1008.99 92.7637 1017.33 94.3754 1024.7 97.5988C1032.15 100.73 1038.51 105.381 1043.76 111.551C1049.1 117.63 1053.2 125.182 1056.05 134.207C1058.91 143.233 1060.34 153.594 1060.34 165.29V175.375C1060.34 186.979 1058.91 197.294 1056.05 206.319C1053.2 215.345 1049.1 222.943 1043.76 229.113C1038.51 235.284 1032.2 239.935 1024.83 243.066C1017.47 246.197 1009.18 247.763 999.967 247.763C990.757 247.763 982.423 246.197 974.963 243.066C967.595 239.935 961.24 235.284 955.899 229.113C950.557 222.943 946.459 215.345 943.604 206.319C940.841 197.294 939.459 186.979 939.459 175.375ZM978.14 165.29V175.375C978.14 182.282 978.601 188.268 979.521 193.334C980.535 198.399 981.962 202.589 983.804 205.905C985.738 209.22 988.04 211.661 990.711 213.227C993.382 214.792 996.467 215.575 999.967 215.575C1003.47 215.575 1006.6 214.792 1009.36 213.227C1012.12 211.661 1014.38 209.22 1016.13 205.905C1017.97 202.589 1019.31 198.399 1020.14 193.334C1021.06 188.268 1021.52 182.282 1021.52 175.375V165.29C1021.52 158.567 1021.01 152.673 1020 147.607C1018.99 142.45 1017.56 138.26 1015.72 135.036C1013.87 131.721 1011.57 129.234 1008.81 127.576C1006.14 125.826 1003.1 124.952 999.691 124.952C996.283 124.952 993.244 125.826 990.573 127.576C987.994 129.234 985.738 131.721 983.804 135.036C981.962 138.26 980.535 142.45 979.521 147.607C978.601 152.673 978.14 158.567 978.14 165.29ZM1139.78 204.662C1139.78 202.083 1138.91 199.78 1137.16 197.754C1135.41 195.728 1132.64 193.656 1128.87 191.538C1125.09 189.327 1120.07 186.887 1113.81 184.216C1106.99 181.453 1100.96 178.598 1095.71 175.651C1090.46 172.704 1086 169.434 1082.31 165.843C1078.72 162.251 1076 158.153 1074.16 153.548C1072.32 148.943 1071.4 143.693 1071.4 137.799C1071.4 131.444 1072.55 125.596 1074.85 120.255C1077.25 114.821 1080.66 110.078 1085.08 106.026C1089.5 101.881 1094.88 98.6579 1101.24 96.3555C1107.69 93.9609 1114.92 92.7637 1122.93 92.7637C1134.16 92.7637 1143.79 94.7438 1151.8 98.7039C1159.9 102.572 1166.12 108.006 1170.45 115.005C1174.78 122.004 1176.94 130.155 1176.94 139.457H1138.26C1138.26 136.141 1137.76 133.194 1136.74 130.616C1135.73 127.945 1134.07 125.873 1131.77 124.399C1129.56 122.925 1126.57 122.189 1122.79 122.189C1120.03 122.189 1117.54 122.787 1115.33 123.985C1113.21 125.182 1111.51 126.794 1110.22 128.82C1109.02 130.754 1108.42 133.056 1108.42 135.727C1108.42 137.753 1108.84 139.549 1109.67 141.115C1110.59 142.68 1112.01 144.2 1113.95 145.673C1115.88 147.147 1118.46 148.713 1121.68 150.37C1125 151.936 1129.05 153.686 1133.84 155.62C1143.79 159.304 1151.94 163.264 1158.29 167.5C1164.74 171.737 1169.53 176.71 1172.66 182.42C1175.79 188.038 1177.36 194.991 1177.36 203.28C1177.36 209.911 1176.07 215.943 1173.49 221.377C1171 226.811 1167.36 231.508 1162.58 235.468C1157.79 239.428 1152.03 242.467 1145.31 244.586C1138.68 246.704 1131.26 247.763 1123.07 247.763C1111 247.763 1100.82 245.368 1092.54 240.579C1084.25 235.79 1077.98 229.666 1073.75 222.206C1069.51 214.654 1067.39 206.826 1067.39 198.721H1104.14C1104.32 203.694 1105.24 207.609 1106.9 210.464C1108.65 213.227 1111 215.161 1113.95 216.266C1116.9 217.371 1120.16 217.923 1123.76 217.923C1127.35 217.923 1130.3 217.463 1132.6 216.542C1134.99 215.529 1136.79 214.009 1137.99 211.983C1139.18 209.865 1139.78 207.424 1139.78 204.662Z"/>
    <path d="M281.384 95.5266L299.895 133.517L315.782 95.5266H356.811L318.545 168.606L358.331 245H317.025L298.1 205.629L280.002 245H238.559L276.549 169.02L239.94 95.5266H281.384Z"/>
    <defs>
        <clipPath id="clip0_312_354">
            <rect width="248.4" height="242.695" fill="currentColor" transform="translate(0 1.3053)" />
        </clipPath>
    </defs>
</svg>