<?xml version="1.0" standalone="no"?>
<!DOCTYPE svg PUBLIC "-//W3C//DTD SVG 20010904//EN"
 "http://www.w3.org/TR/2001/REC-SVG-20010904/DTD/svg10.dtd">
<svg version="1.0" xmlns="http://www.w3.org/2000/svg"
 width="700.000000pt" height="700.000000pt" viewBox="0 0 700.000000 700.000000"
 preserveAspectRatio="xMidYMid meet">
<metadata>
Created by potrace 1.14, written by Peter Selinger 2001-2017
</metadata>
<g transform="translate(0.000000,700.000000) scale(0.100000,-0.100000)"
fill="#000000" stroke="none">
<path d="M1604 5318 c-5 -7 2 -28 326 -988 127 -377 247 -734 267 -795 20 -60
37 -113 39 -117 3 -3 71 25 152 64 244 116 476 229 479 232 2 1 -89 277 -202
612 -113 335 -233 690 -266 790 -34 99 -64 186 -69 193 -5 10 -91 13 -365 14
-196 1 -359 -1 -361 -5z"/>
<path d="M3990 3958 c-58 -28 -159 -76 -225 -108 -66 -31 -178 -85 -250 -120
-71 -34 -188 -91 -260 -125 -71 -35 -193 -93 -270 -130 -77 -37 -196 -95 -265
-128 -161 -76 -311 -148 -480 -230 -74 -35 -184 -88 -245 -117 -60 -29 -196
-94 -302 -146 -106 -51 -200 -95 -210 -98 -22 -7 -40 -67 218 699 88 264 162
487 163 495 1 12 -49 14 -361 15 l-362 0 -25 -70 c-27 -78 -241 -711 -372
-1105 -47 -140 -89 -264 -94 -275 -8 -19 -52 -150 -56 -170 -2 -5 -52 -156
-113 -335 -61 -178 -111 -330 -111 -336 0 -10 85 -12 363 -13 l362 0 156 122
c86 67 235 183 330 258 287 223 638 497 677 528 29 23 361 282 597 466 17 13
116 91 220 172 105 82 298 233 430 336 132 103 247 193 255 200 8 6 56 43 105
82 50 38 113 88 140 110 28 22 61 48 75 57 40 27 22 20 -90 -34z"/>
<path d="M4178 3922 c-104 -1 -188 -6 -188 -10 0 -5 122 -252 270 -550 149
-299 270 -546 270 -551 0 -5 -126 -260 -280 -568 -154 -308 -280 -564 -280
-569 0 -7 536 -11 606 -5 10 1 30 41 125 246 17 39 48 106 69 150 20 44 48
104 61 133 13 28 27 52 30 52 3 0 19 -28 34 -61 15 -34 72 -155 127 -268 55
-113 104 -216 109 -228 5 -13 16 -23 26 -24 94 -4 587 -3 595 2 9 6 -17 59
-197 404 -29 55 -81 154 -115 220 -34 66 -86 165 -115 220 -29 55 -76 146
-105 202 l-52 101 92 179 c51 98 105 201 120 228 15 28 67 127 115 220 48 94
91 175 95 180 6 8 137 262 148 288 2 4 -136 7 -306 7 l-311 0 -7 -22 c-3 -13
-14 -41 -24 -63 -10 -22 -46 -107 -80 -190 -33 -82 -67 -163 -73 -179 -7 -16
-21 -49 -32 -73 l-20 -45 -67 139 c-37 76 -99 203 -138 283 l-71 145 -122 5
c-67 3 -206 4 -309 2z"/>
<path d="M3025 2848 c-55 -43 -107 -84 -115 -91 -8 -7 -92 -72 -186 -145
l-170 -132 124 -368 c68 -202 130 -385 137 -407 l12 -40 366 -2 366 -2 -15 49
c-33 111 -405 1205 -412 1211 -4 3 -52 -29 -107 -73z"/>
<path d="M6129 2268 c-83 -26 -167 -107 -194 -188 -63 -189 46 -393 227 -426
178 -32 320 24 396 158 18 32 24 54 36 142 5 36 -13 117 -36 163 -30 60 -102
124 -168 147 -74 26 -181 28 -261 4z"/>
</g>
</svg>
